<svg viewBox="-10 0 511 511.99845" xmlns="http://www.w3.org/2000/svg"><g fill="#fff"><path d="m319.585938 348.167969c-2.257813 8.050781-8.160157 15.089843-15.785157 18.828125l-1.773437.871094.851562 1.785156c.25.523437 1.253906 2.601562 1.253906 2.601562 3.535157 7.292969 7.542969 15.5625 11.230469 23.980469l.757813 1.730469 1.769531-.660156c14.875-5.527344 26.78125-18.355469 31.066406-33.476563 4.261719-15.015625.941407-32.097656-8.667969-44.585937l-.789062-1.027344-23.511719 5.582031 1.191407 2.28125c3.558593 6.804687 4.4375 14.855469 2.40625 22.089844zm0 0"/><path d="m300.480469 374.027344c-1.929688-3.972656-4.203125-8.664063-6.417969-13.367188l-6.402344-13.65625-17.050781 49.980469 48.0625 18.507813-1.546875-4.160157c-4.753906-12.773437-10.796875-25.242187-16.644531-37.304687zm0 0"/><path d="m270.015625 292.007812-8.546875 12.417969 51.746094-10.5-8.269532-50.824219-2.8125 3.433594c-8.640624 10.558594-16.351562 22.0625-23.8125 33.191406-3.074218 4.597657-5.664062 8.445313-8.304687 12.28125zm0 0"/><path d="m228.496094 289.480469c4.074218-6.5 10.582031-11.316407 17.863281-13.214844 2.367187-.617187 4.835937-.933594 7.34375-.933594 5.972656 0 11.960937 1.800781 16.871094 5.074219l1.667969 1.109375 1.105468-1.671875c.402344-.601562 1.597656-2.378906 1.597656-2.378906 4.539063-6.769532 9.6875-14.445313 15.042969-21.785156l1.113281-1.527344-1.460937-1.199219c-8.882813-7.273437-20.730469-11.445313-32.515625-11.445313-4.136719 0-8.199219.503907-12.074219 1.503907-15.117187 3.902343-28.1875 15.386719-34.113281 29.976562l-.484375 1.195313 16.679687 17.480468zm0 0"/><path d="m208.128906 345.421875.3125.109375c4.257813 1.472656 9.203125 3.183594 13.972656 4.910156l14.1875 5.121094-23.28125-47.402344-47.070312 20.914063 4.03125 1.84375c12.296875 5.625 25.285156 10.140625 37.847656 14.503906zm0 0"/><path d="m211.695312 350.980469-1.863281-.664063-2.726562-.957031c-8.828125-3.058594-16.796875-5.84375-24.894531-9.011719l-1.761719-.6875-.785157 1.71875c-6.613281 14.433594-5.960937 31.917969 1.703126 45.636719 7.609374 13.640625 22.035156 23.371094 37.644531 25.398437l1.285156.167969 12.675781-20.570312-2.453125-.769531c-7.332031-2.300782-13.644531-7.375-17.3125-13.921876-4.101562-7.300781-4.90625-16.445312-2.152343-24.46875zm0 0"/></g><path d="m397.105469 374.132812-.210938-2.386718c-3.285156-35.886719-13.519531-103.839844-45.105469-155.757813-7.046874-11.574219-16.621093-26.46875-28.21875-38.976562l-.117187-.128907-.140625-.105468c-.148438-.113282-.261719-.214844-.347656-.316406l-.148438-.257813-.148437-.15625c-11.71875-12.402344-23.542969-20.378906-36.140625-24.382813-7.484375-2.375-15.125-3.582031-22.710938-3.582031-13.535156 0-27.226562 3.816407-40.6875 11.34375-28.605468 15.984375-50.667968 45.257813-64.136718 67-15.757813 25.425781-28.832032 55.355469-34.980469 80.058594l-.851563 3.40625c-12.851562 51.558594-26.140625 104.871094 12.023438 147.375l.449218.503906.660157.125c.828125.160157 1.46875.851563 1.589843 1.714844l.09375.652344.773438.789062c.46875.480469.941406.960938 1.421875 1.429688 28.976563 28.414062 67.664063 38.40625 95.015625 41.785156 8.964844 1.109375 17.949219 1.671875 26.707031 1.671875 24.269531 0 46.800781-4.175781 66.964844-12.414062 35.835937-14.636719 56.71875-37.488282 64.3125-53.996094 8.292969-18.042969 5.777344-45.390625 3.933594-65.394532zm-154.941407-13.597656c-.386718.429688-.9375.675782-1.519531.675782-.234375 0-.46875-.042969-.691406-.121094l-18.910156-6.832032c-.675781-.242187-5.503907-1.964843-5.503907-1.964843l-.65625 1.917969c-2.371093 6.914062-1.675781 14.808593 1.867188 21.117187 4.03125 7.1875 11.628906 12.183594 19.832031 13.042969.6875.066406 1.292969.492187 1.605469 1.121094.308594.628906.273438 1.359374-.097656 1.957031l-14.984375 24.320312c-.359375.589844-1.019531.957031-1.769531.957031 0 0-.109376-.003906-.164063-.003906-17.972656-1.371094-34.582031-11.988281-43.351563-27.726562-8.363281-14.972656-9.109374-33.292969-1.996093-49.011719l.84375-1.867187-1.886719-.796876c-5.21875-2.210937-9.859375-4.363281-14.171875-6.578124-.691406-.355469-1.121094-1.085938-1.097656-1.871094.019531-.773438.492187-1.476563 1.203125-1.792969l52.738281-23.417969c.265625-.117187.542969-.175781.824219-.175781.78125 0 1.476562.433594 1.820312 1.140625l26.371094 53.660156c.367188.742188.242188 1.628906-.304688 2.25zm15.214844-51.132812c-.171875.03125-.316406.046875-.445312.046875-.679688 0-1.3125-.34375-1.695313-.914063-.453125-.683594-.441406-1.597656.023438-2.269531l11.414062-16.566406c.714844-1.046875 1.4375-2.109375 2.148438-3.175781l1.117187-1.667969-1.671875-1.109375c-4.234375-2.8125-9.390625-4.359375-14.523437-4.359375-2.167969 0-4.308594.273437-6.367188.808593-7.976562 2.082032-14.730468 8.164063-17.632812 15.855469-.253906.667969-.820313 1.148438-1.46875 1.285157-.167969.03125-.3125.042968-.445313.042968-.550781 0-1.082031-.222656-1.460937-.628906l-19.710938-20.660156c-.527344-.554688-.703125-1.339844-.457031-2.058594 5.875-17.054688 20.371094-30.449219 37.839844-34.953125 4.3125-1.113281 8.789062-1.675781 13.3125-1.675781 12.628906 0 24.921875 4.332031 34.605469 12.191406l1.59375 1.292969 1.253906-1.625c3.5-4.535157 6.753906-8.472657 9.960937-12.042969.378907-.425781.925781-.671875 1.5-.671875.191407 0 .382813.027344.566407.082031.753906.222656 1.320312.859375 1.445312 1.625l9.257812 56.960938c.175782 1.082031-.527343 2.097656-1.601562 2.316406zm95.488282 55.53125c-4.679688 16.507812-17.109376 29.988281-33.25 36.066406l-1.914063.71875.765625 1.902344c2.191406 5.433594 3.949219 10.230468 5.371094 14.675781.238281.738281.027344 1.554687-.542969 2.09375-.375.355469-.871094.550781-1.394531.550781-.253906 0-.488282-.042968-.722656-.136718l-53.863282-20.730469c-1.019531-.390625-1.539062-1.511719-1.191406-2.546875l19.3125-56.589844c.265625-.785156.976562-1.324219 1.804688-1.367188l.113281-.003906c.78125 0 1.503906.457032 1.835937 1.167969l8.554688 18.203125c.46875.988281 2.515625 5.269531 2.515625 5.269531l1.8125-.886719c6.566406-3.214843 11.652343-9.289062 13.605469-16.25 2.222656-7.9375.382812-16.839843-4.796876-23.234374-.441406-.546876-.570312-1.273438-.34375-1.949219.222657-.65625.761719-1.144531 1.445313-1.308594l27.769531-6.597656c.15625-.035157.3125-.054688.46875-.054688.597656 0 1.15625.257813 1.546875.710938 11.765625 13.664062 16.019531 32.9375 11.097657 50.296875zm0 0" fill="#cbe580"/><path d="m235.71875 122.554688 1.257812 1.226562 1.378907-1.09375c2.433593-1.925781 5.019531-3.574219 7.691406-4.90625 1.535156-.769531 3.203125-1.46875 4.964844-2.082031l1.867187-.652344-.628906-1.875-.058594-.15625-7.667968-31.453125c-.128907-.523438-.042969-1.066406.238281-1.527344.28125-.464844.730469-.792968 1.253906-.921875.160156-.039062.324219-.058593.488281-.058593.9375 0 1.746094.632812 1.964844 1.550781l7.667969 31.46875.394531 2.035156 1.925781-.328125c2.773438-.472656 5.574219-.710938 8.320313-.710938.542968 0 1.089844.011719 1.636718.027344l2.363282.082032-.3125-2.34375c-.054688-.402344.003906-.789063.167968-1.136719l15.140626-31.503907c.335937-.699218 1.058593-1.148437 1.835937-1.148437.300781 0 .59375.066406.863281.195313.496094.238281.867188.65625 1.046875 1.171874.175781.507813.144531 1.054688-.089843 1.542969l-16.105469 33.527344 2.550781.488281c5.207031 1.003906 10.058594 2.808594 14.421875 5.371094 2.449219 1.441406 4.839844 3.203125 7.109375 5.238281l1.621094 1.449219 1.308594-1.734375c13.472656-17.832031 24.628906-37.289063 33.164062-57.835937 2.816406-6.769532 4.808594-12.503907 5.382812-18.5.648438-6.84375-.867187-13.054688-4.261718-17.484376-3.746094-4.890624-10.023438-7.695312-17.222656-7.695312-4.011719 0-8.109376.898438-11.542969 2.535156-10.933594 5.1875-17.425781 16.144532-20.949219 24.429688-.316406.753906-1.046875 1.242187-1.867188 1.242187-.128906 0-.261718-.015625-.378906-.035156-.957031-.191406-1.632812-1-1.648437-1.972656-.144531-9.054688-.304688-19.320313-4.171875-28.046875-3.269532-7.402344-10.621094-14.871094-19.667969-14.871094-.28125 0-.570313.007812-.851563.023438-7.320312.367187-14.628906 6.304687-17.777343 14.441406-2.566407 6.675781-2.886719 14.886718-.976563 25.089844.136719.738281-.144531 1.492187-.730468 1.960937-.359376.289063-.8125.445313-1.273438.445313-.277344 0-.550781-.058594-.800781-.164063-5.269531-2.296875-9.261719-6.316406-13.121094-10.203125-1.371094-1.386719-2.667969-2.691406-4.035156-3.945312-2.75-2.523438-8.226563-6.75-14.019531-6.75-1.21875 0-2.398438.191406-3.507813.570312-7.09375 2.410156-9.558594 11.777344-9.515625 19.066406.09375 13.597656 5.214844 28.191406 14.820312 42.207032 8.726563 12.726562 20.207032 23.894531 30.335938 33.75zm0 0" fill="#cbe580"/><path d="m484.1875 352.050781-.183594-2.011719c-2.785156-30.488281-11.46875-88.222656-38.3125-132.320312-13.792968-22.675781-31.152344-46.890625-55.320312-54.5625-6.359375-2.023438-12.839844-3.046875-19.265625-3.046875-13.847657 0-27.835938 4.726563-41.582031 14.046875l-1.878907 1.269531 1.5 1.703125c10.753907 12.21875 19.605469 26.058594 26.117188 36.75 16.792969 27.597656 38.34375 77.324219 45.679687 157.488282l.210938 2.386718c1.886718 20.429688 4.472656 48.417969-4.296875 67.46875-2.890625 6.289063-6.941407 12.5-12.042969 18.464844l-3.242188 3.792969 4.964844-.5c14.171875-1.429688 27.566406-4.691407 39.804688-9.699219 30.398437-12.417969 48.101562-31.785156 54.53125-45.765625 7.03125-15.296875 4.882812-38.515625 3.316406-55.464844zm0 0" fill="#5fc980"/><path d="m335.371094 127.171875c3.191406 3.828125 6.410156 7.699219 9.746094 11.691406l1.308593 1.566407 1.539063-1.339844c2.429687-2.113282 5.097656-3.902344 7.933594-5.320313 1.121093-.558593 2.34375-1.082031 3.746093-1.589843l1.6875-.609376-6.886719-28.246093c-.265624-1.089844.40625-2.195313 1.492188-2.460938.160156-.039062.324219-.058593.488281-.058593.933594 0 1.742188.636718 1.964844 1.5625l6.878906 28.183593 1.820313-.296875c2.082031-.335937 4.230468-.503906 6.390625-.503906.316406 0 .636719.003906.957031.011719l1.972656.042969.074219-1.972657c.007813-.285156.070313-.546875.191406-.796875l12.871094-26.78125c.335937-.703125 1.054687-1.15625 1.828125-1.15625.304688 0 .601562.070313.882812.207032.484376.234374.851563.644531 1.03125 1.15625.179688.511718.148438 1.0625-.089843 1.554687l-13.492188 28.105469 2.492188.527344c4.179687.882812 8.089843 2.386718 11.621093 4.46875 1.90625 1.113281 3.792969 2.480468 5.609376 4.0625l1.621093 1.410156 1.289063-1.71875c11.261718-14.988282 20.609375-31.335938 27.789062-48.585938 2.386719-5.753906 4.074219-10.617187 4.542969-15.644531.546875-5.75-.714844-10.953125-3.550781-14.65625-3.132813-4.085937-8.382813-6.429687-14.40625-6.429687-3.359375 0-6.804688.757812-9.691406 2.128906-9.238282 4.386718-14.699219 13.632812-17.652344 20.613281-.320313.757813-1.0625 1.246094-1.882813 1.246094-.128906 0-.257812-.011719-.378906-.035157-.9375-.183593-1.628906-1.007812-1.640625-2.003906-.132812-8.039062-.269531-16.351562-3.519531-23.695312-2.757813-6.203125-8.917969-12.464844-16.460938-12.464844-.234375 0-.464843.007812-.695312.019531-6.121094.308594-12.226563 5.28125-14.847657 12.085938-2.167968 5.621093-2.441406 12.542969-.828124 21.175781.140624.738281-.140626 1.492188-.738282 1.964844-.351562.285156-.796875.441406-1.253906.441406-.28125 0-.554688-.058594-.8125-.171875-1.375-.601563-2.640625-.875-3.914062-1.152344-1.386719-.300781-2.953126-.644531-4.542969-1.519531l-1.914063-1.050781-.878906 1.996093c-4.816406 10.917969-10.386719 21.578126-16.558594 31.6875l-.746094 1.222657.917969 1.101562c4.46875 5.347657 8.75 10.488281 13.019531 15.617188zm0 0" fill="#5fc980"/><path d="m186.601562 49.609375-.097656-1.695313-1.6875-.179687c-.789062-.085937-1.601562-.132813-2.410156-.132813-3.382812 0-6.707031.734376-9.609375 2.121094-9.246094 4.386719-14.703125 13.636719-17.652344 20.609375-.324219.757813-1.058593 1.246094-1.871093 1.246094-.128907 0-.261719-.015625-.402344-.042969-.933594-.179687-1.621094-1.003906-1.636719-1.957031-.125-8.050781-.25-16.375-3.523437-23.738281-2.75-6.207032-8.910157-12.464844-16.472657-12.464844-.230469 0-.457031.003906-.6875.015625-6.101562.308594-12.207031 5.277344-14.84375 12.089844-2.164062 5.613281-2.433593 12.539062-.820312 21.183593.144531.730469-.136719 1.480469-.726563 1.949219-.363281.289063-.816406.445313-1.277344.445313-.277343 0-.550781-.058594-.800781-.164063-4.503906-1.960937-7.914062-5.390625-11.253906-8.75l-.503906-.503906c-.988281-.992187-1.925781-1.929687-2.910157-2.828125-2.308593-2.113281-6.898437-5.667969-11.703124-5.667969-1.011719 0-1.984376.160157-2.902344.472657-5.875 2-7.921875 9.539062-7.875 15.921874.0625 11.492188 4.398437 23.84375 12.539062 35.71875 7.421875 10.832032 17.378906 20.507813 25.378906 28.285157l1.238282 1.207031 1.375-1.054688c1.980468-1.523437 4.0625-2.832031 6.203125-3.886718 1.09375-.546875 2.320312-1.070313 3.761719-1.601563l1.671874-.621093-6.886718-28.234376c-.128906-.519531-.042969-1.066406.238281-1.527343.28125-.464844.730469-.792969 1.253906-.921875.164063-.039063.328125-.058594.488281-.058594.933594 0 1.742188.640625 1.964844 1.550781l6.867188 28.175781 1.816406-.285156c2.132812-.332031 4.328125-.503906 6.523438-.503906.277343 0 .558593.003906.835937.007812l1.925781.039063.109375-1.921875c.019531-.308594.085938-.582031.207031-.828125l12.859376-26.789063c.34375-.710937 1.046874-1.15625 1.835937-1.15625.304687 0 .601563.070313.871094.199219.496093.238281.867187.65625 1.050781 1.171875.175781.507813.144531 1.054688-.09375 1.542969l-13.5 28.101563 2.484375.53125c4.210937.898437 8.125 2.402343 11.632813 4.464843 1.914062 1.132813 3.804687 2.503907 5.613281 4.078125l1.621093 1.410156 1.289063-1.71875c7.441406-9.90625 14.085937-20.460937 19.746094-31.371093 2.9375-5.644531 5.636719-11.441407 8.015625-17.179688.105468-.242187.203125-.488281.300781-.734375l.5-1.222656-.449219-.832031c-5.800781-10.789063-9.039062-21.542969-9.621094-31.964844zm0 0" fill="#5fc980"/><path d="m156.136719 157.183594c-6.332031-2.011719-12.796875-3.03125-19.21875-3.03125-11.460938 0-23.058594 3.230468-34.460938 9.601562-24.273437 13.570313-42.992187 38.417969-54.425781 56.875-13.367188 21.5625-24.472656 46.976563-29.710938 67.988282l-.71875 2.890624c-11.148437 44.710938-22.679687 90.949219 12.257813 127.335938.691406.714844 1.394531 1.4375 2.121094 2.144531 24.59375 24.105469 57.417969 32.582031 80.625 35.449219 4.230469.523438 8.652343.910156 13.148437 1.152344l4.382813.230468-2.695313-3.457031c-33.714844-43.246093-20.167968-97.554687-8.21875-145.472656l.839844-3.386719c8.675781-34.824218 33.625-88.335937 67.902344-123.527344l1.316406-1.351562-1.273438-1.394531c-10.320312-11.296875-20.746093-18.507813-31.871093-22.046875zm0 0" fill="#5fc980"/><path d="m408.886719 163.910156c-1.679688-10.367187-8.242188-20.0625-17.128907-25.292968-5.371093-3.167969-11.667968-4.84375-18.199218-4.84375-5.59375 0-11.074219 1.257812-15.855469 3.636718-8.90625 4.433594-15.839844 12.945313-18.546875 22.769532l-1.128906 4.09375 3.875-1.738282c9.644531-4.328125 19.441406-6.519531 29.117187-6.519531 6.839844 0 13.761719 1.097656 20.574219 3.261719 4.824219 1.535156 9.625 3.773437 14.265625 6.652344l3.730469 2.316406zm0 0" fill="#ed6d66"/><path d="m263.769531 144.003906c7.992188 0 16.0625 1.277344 23.988281 3.792969 6.085938 1.933594 12.128907 4.816406 17.960938 8.574219l3.582031 2.308594-.511719-4.230469c-1.574218-12.945313-9.449218-25.054688-20.550781-31.601563-6.375-3.757812-13.839843-5.742187-21.585937-5.742187-6.628906 0-13.132813 1.492187-18.800782 4.3125-10.96875 5.460937-19.554687 16.40625-22.40625 28.566406l-.9375 4.003906 3.730469-1.734375c11.773438-5.476562 23.726563-8.25 35.53125-8.25zm0 0" fill="#ed6d66"/><path d="m136.851562 150.070312c6.832032 0 13.734376 1.089844 20.519532 3.246094 4.796875 1.519532 9.597656 3.753906 14.257812 6.644532l3.734375 2.316406-.707031-4.339844c-1.6875-10.363281-8.25-20.054688-17.128906-25.292969-5.378906-3.164062-11.671875-4.835937-18.203125-4.835937-5.589844 0-11.074219 1.257812-15.851563 3.640625-8.914062 4.429687-15.851562 12.949219-18.558594 22.789062l-1.125 4.089844 3.871094-1.730469c9.671875-4.332031 19.496094-6.527344 29.191406-6.527344zm0 0" fill="#ed6d66"/><path d="m490.226562 351.492188-.183593-2.007813c-6.269531-68.617187-24.757813-111.242187-39.167969-134.917969-9.816406-16.132812-21.421875-33.023437-36.085938-44.757812.398438-.65625.613282-1.433594.578126-2.257813-.378907-8.609375-3.675782-17.082031-9-23.929687 11.921874-15.671875 21.800781-32.828125 29.359374-51.007813 2.59375-6.246093 4.4375-11.597656 4.984376-17.398437.691406-7.277344-1.007813-13.996094-4.78125-18.917969-6.742188-8.800781-20.285157-11.417969-31.507813-6.089844-5.746094 2.726563-10.214844 6.933594-13.652344 11.46875-.542969-4.167969-1.515625-8.34375-3.28125-12.328125-3.710937-8.378906-12.269531-16.582031-23.003906-16.046875-8.035156.40625-15.679687 6.082031-19.496094 14.316407.570313-8.023438-1.382812-15.394532-5.550781-20.832032-7.730469-10.085937-23.285156-13.078125-36.1875-6.953125-7.242188 3.4375-12.738281 8.921875-16.847656 14.71875-.585938-5.429687-1.722656-10.90625-4.015625-16.078125-5.921875-13.367187-17.535157-18.882812-26.367188-18.4492185-9.796875.4921875-19.089843 7.8554685-23.125 18.3164065-2.160156 5.59375-2.980469 11.984375-2.472656 19.375-1.503906-1.34375-2.972656-2.824219-4.476563-4.339844-1.363281-1.371094-2.773437-2.789062-4.246093-4.136719-7.828125-7.175781-16.421875-9.890625-23.582031-7.449219-8.433594 2.875-12.292969 11.425782-13.316407 19.835938-5.003906-.425781-10.113281.484375-14.609375 2.617188-5.746094 2.726562-10.214844 6.933593-13.652344 11.46875-.546874-4.164063-1.515624-8.339844-3.28125-12.328126-3.714843-8.375-12.296874-16.582031-23.003906-16.042968-8.566406.429687-16.683594 6.84375-20.199218 15.960937-1.71875 4.457031-2.460938 9.492188-2.222657 15.238281-.894531-.847656-1.789062-1.746093-2.695312-2.660156-1.164063-1.171875-2.367188-2.382812-3.628907-3.539062-6.824218-6.253906-14.359374-8.609375-20.65625-6.460938-8.917968 3.039063-12.039062 13.203125-11.984374 21.703125.078124 12.710938 4.785156 26.234375 13.605468 39.109375 7.425782 10.835938 16.757813 20.058594 25.882813 28.941406-5.6875 6.421876-9.5 14.546876-10.472657 23.011719-.03125.257813-.03125.507813-.011718.757813-45.675782 26.65625-76.589844 92.234375-85.429688 127.753906l-.722656 2.886719c-11.007812 44.152343-23.488281 94.195312 13.757812 132.988281.734376.765625 1.488282 1.527344 2.261719 2.285156 25.796875 25.289063 59.988281 34.152344 84.125 37.136719 7.105469.875 14.210938 1.34375 21.179688 1.429687.082031.085938.15625.171876.238281.253907v.003906c.863281.894531 1.742188 1.785156 2.648438 2.671875 30.191406 29.597656 70.238281 39.976562 98.515624 43.472656 9.269532 1.144532 18.429688 1.714844 27.425782 1.714844 24.863281 0 48.4375-4.34375 69.28125-12.863281 9.757812-3.988281 24.382812-11.109375 38.652344-22.402344 2.914062-2.304687 5.640624-4.65625 8.199218-7.054687 18.167969-.855469 35.199219-4.476563 50.632813-10.785157 40.308593-16.472656 54.386719-41.550781 57.742187-48.847656 7.703125-16.75 5.476563-40.914063 3.847656-58.554687zm-176.0625-191.523438c.621094-.746094.988282-1.707031.945313-2.75-.449219-10.164062-4.414063-20.148438-10.78125-28.164062.023437-.023438.046875-.039063.066406-.066407 3.957031-5.1875 7.71875-10.515625 11.289063-15.972656 3.871094 4.640625 7.613281 9.136719 11.351562 13.625 4.585938 5.507813 9.171875 11.015625 14.003906 16.796875-4.828124 6.101562-8.042968 13.5-8.925781 21.171875-.03125.253906-.027343.503906-.011719.746094-2.339843 1.371093-4.671874 2.863281-7 4.480469-3.480468-3.539063-7.121093-6.851563-10.9375-9.867188zm-121.878906 14.957031c-3.871094-4.214843-7.777344-7.894531-11.734375-11.070312.402344-.660157.617188-1.4375.582031-2.269531-.378906-8.609376-3.675781-17.078126-8.996093-23.929688 7.941406-10.441406 15.042969-21.648438 21.105469-33.320312 2.25-4.339844 4.382812-8.789063 6.363281-13.28125.257812.390624.507812.785156.777343 1.171874 8.820313 12.878907 19.972657 23.835938 30.828126 34.40625-6.839844 7.519532-11.4375 17.140626-12.59375 27.175782-.046876.40625-.011719.796875.058593 1.179687-9.335937 5.398438-18.144531 12.183594-26.390625 19.9375zm-67.921875-41.691406c9.953125-4.953125 22.570313-4.507813 32.144531 1.136719 8.511719 5.015625 14.585938 14.128906 16.175782 23.890625-4.792969-2.976563-9.683594-5.257813-14.714844-6.855469-16.957031-5.386719-34.121094-4.246094-51.128906 3.363281 2.519531-9.15625 9.03125-17.308593 17.523437-21.535156zm124.378907-10.023437c11.910156-5.929688 27.011718-5.398438 38.476562 1.359374 10.636719 6.265626 18.09375 17.867188 19.582031 30.125-5.753906-3.710937-11.882812-6.722656-18.4375-8.804687-20.214843-6.417969-40.691406-4.882813-60.96875 4.546875 2.707031-11.550781 10.738281-21.945312 21.347657-27.226562zm109.851562 15.988281c9.953125-4.953125 22.570312-4.503907 32.148438 1.136719 8.511718 5.015624 14.585937 14.132812 16.175781 23.898437-4.617188-2.867187-9.507813-5.207031-14.714844-6.863281-17.035156-5.40625-34.160156-4.273438-51.125 3.339844 2.527344-9.148438 9.03125-17.289063 17.515625-21.511719zm-8.957031-63.050781c1.164062-.929688 1.722656-2.429688 1.449219-3.894532-1.542969-8.253906-1.308594-14.820312.722656-20.085937 2.355468-6.09375 7.734375-10.542969 13.082031-10.808594 6.886719-.363281 12.71875 5.589844 15.230469 11.257813 3.09375 6.984374 3.222656 15.105468 3.347656 22.960937.03125 1.902344 1.390625 3.527344 3.261719 3.890625 1.859375.363281 3.738281-.628906 4.480469-2.382812 2.828124-6.671876 8.011718-15.484376 16.671874-19.59375 6.777344-3.214844 16.726563-2.710938 21.648438 3.710937 2.53125 3.304687 3.652344 8.011719 3.15625 13.25-.457031 4.800781-2.089844 9.496094-4.40625 15.066406-7.125 17.132813-16.398438 33.316407-27.542969 48.152344-1.835937-1.601563-3.804687-3.046875-5.902343-4.28125-3.769532-2.222656-7.921876-3.789063-12.226563-4.703125l12.398437-25.808594c.964844-2.007812.117188-4.417968-1.886718-5.378906-2.007813-.964844-4.417969-.121094-5.382813 1.886719l-12.867187 26.785156c-.246094.511719-.371094 1.050781-.390625 1.585937-2.582031-.054687-5.164063.117188-7.710938.519532l-6.433593-26.390625c-.523438-2.164063-2.707032-3.492188-4.871094-2.960938-2.164063.527344-3.488282 2.707031-2.960938 4.871094l6.460938 26.5c-1.347656.496094-2.675782 1.046875-3.960938 1.6875-3.003906 1.492187-5.804687 3.390625-8.355468 5.59375-4.613282-5.523437-9.019532-10.8125-13.417969-16.097656-4.269531-5.128907-8.550781-10.269531-13.019531-15.621094 6.257812-10.25 11.835937-20.914063 16.679687-31.917969 1.824219.996094 3.574219 1.386719 5.085937 1.714844 1.195313.261719 2.324219.507812 3.539063 1.035156 1.371094.597656 2.953125.386719 4.121094-.542968zm-7.375-8.699219c-.863281-.230469-1.523438-.507813-2.191407-1.039063.726563-1.820312 1.394532-3.585937 1.984376-5.316406-.058594 2.027344 0 4.132812.207031 6.355469zm-141.542969-38.027344c6.078125-2.074219 12.890625 3.339844 15.535156 5.761719 1.332032 1.21875 2.613282 2.511718 3.972656 3.875 4 4.027344 8.136719 8.195312 13.734376 10.628906 1.371093.59375 2.953124.386719 4.121093-.546875 1.164063-.929687 1.726563-2.425781 1.449219-3.894531-1.839844-9.835938-1.550781-17.6875.886719-24.003906 2.863281-7.417969 9.445312-12.835938 16.007812-13.164063 8.453125-.449219 15.542969 6.785156 18.59375 13.660156 3.699219 8.347657 3.855469 18.402344 3.996094 27.273438.03125 1.90625 1.390625 3.53125 3.261719 3.894531 1.867187.363281 3.738281-.628906 4.480468-2.382812 3.371094-7.957032 9.570313-18.476563 19.953126-23.40625 8.226562-3.90625 20.320312-3.265626 26.328124 4.570312 3.085938 4.027344 4.453126 9.738281 3.851563 16.082031-.542969 5.738281-2.484375 11.3125-5.230469 17.921875-8.496094 20.4375-19.574218 39.742188-32.921875 57.398438-2.289062-2.0625-4.773437-3.90625-7.421875-5.46875-4.628906-2.726563-9.753906-4.585938-15.058594-5.613282l14.980469-31.183593c.964844-2.007813.117188-4.414063-1.890625-5.378907-2.003906-.964843-4.414062-.121093-5.378906 1.886719l-15.128906 31.5c-.351563.734375-.460938 1.519531-.359375 2.269531-3.46875-.125-6.945313.125-10.359375.710938-.007813-.058594-.007813-.113281-.023438-.167969l-7.679687-31.511719c-.527344-2.160156-2.707031-3.488281-4.871094-2.960937s-3.488281 2.707031-2.960937 4.871094l7.679687 31.511719c.023437.089843.058594.167968.085937.253906-1.777343.621094-3.519531 1.34375-5.203124 2.183594-2.847657 1.417968-5.53125 3.152343-8.035157 5.132812-10.660156-10.378906-21.632812-21.125-30.078125-33.453125-9.382812-13.6875-14.382812-27.898437-14.464844-41.085937-.042968-6.625 2.066407-15.09375 8.148438-17.164063zm-111.59375 72.710937c-7.910156-11.539062-12.128906-23.503906-12.199219-34.601562-.03125-5.429688 1.65625-12.359375 6.523438-14.019531 4.875-1.660157 10.441406 2.785156 12.609375 4.773437 1.125 1.027344 2.210937 2.121094 3.355468 3.277344 3.445313 3.464844 7.003907 7.050781 11.867188 9.164062 1.371094.597657 2.957031.386719 4.121094-.542968 1.167968-.929688 1.726562-2.429688 1.453125-3.894532-1.546875-8.25-1.308594-14.820312.71875-20.085937 2.351562-6.09375 7.734375-10.539063 13.082031-10.808594 6.914062-.351562 12.71875 5.59375 15.230469 11.257813 3.09375 6.984375 3.222656 15.105468 3.347656 22.960937.027344 1.902344 1.390625 3.527344 3.257813 3.890625 1.863281.363282 3.742187-.628906 4.484374-2.382812 2.824219-6.667969 8.011719-15.484375 16.671876-19.59375 3.308593-1.574219 7.25-2.203125 10.957031-1.808594.597656 10.710938 3.964843 21.855469 9.859375 32.800781-.140625.347657-.277344.691407-.417969 1.035157-2.398437 5.769531-5.078125 11.511718-7.964844 17.066406-5.644531 10.871094-12.230469 21.316406-19.570312 31.089844-1.839844-1.601563-3.8125-3.046876-5.910157-4.285157-3.769531-2.222656-7.921874-3.789062-12.226562-4.703125l12.398438-25.808594c.964843-2.007812.117187-4.417968-1.890626-5.378906-2.007812-.964844-4.414062-.121094-5.378906 1.886719l-12.867187 26.789063c-.246094.511718-.371094 1.046874-.390625 1.582031-2.582032-.054688-5.167969.117187-7.710938.515625l-6.433594-26.386719c-.527343-2.164063-2.703124-3.492187-4.871093-2.960937-2.164063.527343-3.488281 2.707031-2.960938 4.871093l6.460938 26.5c-1.351563.496094-2.679688 1.046875-3.964844 1.683594-2.300781 1.148437-4.484375 2.527344-6.527344 4.097656-8.921875-8.6875-18.0625-17.6875-25.113281-27.980469zm23.726562 352.320313c-22.90625-2.832031-55.285156-11.183594-79.472656-34.894531-.714844-.699219-1.410156-1.402344-2.089844-2.113282-34.160156-35.574218-22.765624-81.265624-11.746093-125.449218l.71875-2.890625c5.175781-20.796875 16.191406-46 29.46875-67.425781 11.316406-18.257813 29.820312-42.824219 53.703125-56.175782 17.375-9.714844 34.902344-11.871094 52.09375-6.410156 10.753906 3.414062 20.921875 10.457031 31.007812 21.484375-36.042968 37.007813-60.242187 91.644531-68.40625 124.441406l-.84375 3.394531c-12.109375 48.546876-25.726562 103.167969 8.578125 147.171876-4.316406-.230469-8.660156-.597657-13.011719-1.132813zm215.25 37.21875c-27.113281 11.082031-59.15625 14.753906-92.667968 10.613281-27.042969-3.339844-65.28125-13.207031-93.863282-41.230468-.585937-.570313-1.144531-1.148438-1.710937-1.726563-.238281-1.703125-1.527344-3.078125-3.191406-3.398437-37.453125-41.722657-24.296875-94.496094-11.5625-145.566407l.847656-3.394531c6.101563-24.523438 19.089844-54.238281 34.738281-79.492188 13.351563-21.542968 35.1875-50.535156 63.40625-66.308593 20.613282-11.519531 41.410156-14.074219 61.824219-7.59375 13.410156 4.257812 25.039063 12.996093 35.285156 23.84375.039063.054687.0625.113281.101563.167969.230468.308593.503906.5625.796875.785156 10.683593 11.527344 19.855469 25.320312 27.976562 38.660156 31.390625 51.589844 41.550781 119.191406 44.816407 154.894531l.21875 2.378907c1.820312 19.757812 4.3125 46.816406-3.765626 64.382812-7.433593 16.15625-27.949218 38.558594-63.25 52.984375zm150.949219-84.992187c-6.273437 13.636718-23.609375 32.550781-53.46875 44.753906-12.097656 4.945312-25.261719 8.148437-39.246093 9.558594 5.207031-6.089844 9.34375-12.417969 12.339843-18.933594 8.980469-19.527344 6.375-47.828125 4.472657-68.492188l-.222657-2.371094c-7.359375-80.558593-29.054687-130.578124-45.957031-158.355468-7.691406-12.636719-16.324219-25.671875-26.324219-37.03125 19.683594-13.34375 39.554688-16.964844 59.117188-10.75 23.53125 7.472656 40.617187 31.339844 54.226562 53.699218 26.632813 43.765626 35.253907 101.152344 38.023438 131.460938l.1875 2.015625c1.542969 16.730469 3.65625 39.652344-3.148438 54.445313zm0 0"/><path d="m319.515625 294.886719-9.265625-56.953125c-.25-1.53125-1.355469-2.785156-2.84375-3.222656-1.492188-.4375-3.097656.019531-4.136719 1.175781-3.511719 3.910156-6.835937 7.992187-10.050781 12.15625-13.734375-11.148438-32.496094-15.335938-49.675781-10.90625-18.109375 4.671875-33.140625 18.558593-39.226563 36.242187-.488281 1.425782-.144531 3.003906.894532 4.09375l19.707031 20.65625c.769531.804688 1.828125 1.25 2.917969 1.25.269531 0 .535156-.027344.800781-.082031 1.359375-.277344 2.480469-1.230469 2.972656-2.527344 2.683594-7.109375 8.921875-12.71875 16.277344-14.636719 6.523437-1.699218 13.6875-.433593 19.28125 3.28125-.714844 1.050782-1.429688 2.109376-2.144531 3.148438l-11.40625 16.5625c-.933594 1.355469-.949219 3.140625-.042969 4.511719.753906 1.144531 2.027343 1.808593 3.363281 1.808593.265625 0 .53125-.027343.800781-.082031l58.597657-11.878906c2.121093-.429687 3.527343-2.457031 3.179687-4.597656zm-73.664063-20.554688c-7.855468 2.046875-14.757812 7.242188-19.050781 14.089844l-14.011719-14.683594c5.640626-13.882812 18.261719-25.050781 32.765626-28.789062 14.601562-3.765625 31.152343-.007813 42.816406 9.550781-5.257813 7.210938-10.222656 14.59375-15.089844 21.855469-.527344.785156-1.070312 1.589843-1.601562 2.382812-7.492188-4.984375-17.09375-6.683593-25.828126-4.40625zm20.066407 27.148438 5.746093-8.339844c2.804688-4.074219 5.605469-8.253906 8.316407-12.296875 7.460937-11.128906 15.132812-22.574219 23.703125-33.046875l7.25 44.558594zm0 0"/><path d="m339.300781 312.035156-27.777343 6.597656c-1.347657.320313-2.4375 1.308594-2.882813 2.621094-.449219 1.3125-.191406 2.761719.683594 3.839844 4.785156 5.90625 6.480469 14.121094 4.425781 21.4375-1.820312 6.488281-6.527344 12.035156-12.558594 14.992188-.546875-1.148438-1.101562-2.296876-1.636718-3.441407l-8.550782-18.199219c-.695312-1.488281-2.226562-2.398437-3.871094-2.3125-1.640624.089844-3.0625 1.167969-3.59375 2.722657l-19.300781 56.589843c-.699219 2.050782.34375 4.285157 2.367188 5.0625l53.851562 20.730469c.46875.183594.960938.269531 1.449219.269531 1.011719 0 2.003906-.382812 2.765625-1.101562 1.128906-1.0625 1.546875-2.683594 1.074219-4.160156-1.605469-5.007813-3.453125-9.9375-5.425782-14.8125 16.550782-6.234375 29.628907-20.320313 34.472657-37.394532 5.101562-17.992187.695312-37.976562-11.503907-52.148437-.984374-1.144531-2.527343-1.640625-3.988281-1.292969zm-66.179687 83.777344 14.828125-43.46875 4.304687 9.164062c2.105469 4.480469 4.300782 9.011719 6.421875 13.390626 5.847657 12.054687 11.855469 24.449218 16.574219 37.132812zm73.914062-32.535156c-4.113281 14.503906-15.710937 26.898437-29.847656 32.148437-3.570312-8.171875-7.441406-16.179687-11.253906-24.042969-.414063-.855468-.835938-1.730468-1.253906-2.59375 8.082031-3.957031 14.394531-11.386718 16.832031-20.078124 2.195312-7.816407 1.195312-16.394532-2.554688-23.558594l19.746094-4.691406c9.144531 11.875 12.417969 28.40625 8.332031 42.816406zm0 0"/><path d="m217.898438 303.738281c-.957032-1.945312-3.28125-2.785156-5.253907-1.90625l-52.738281 23.417969c-1.421875.628906-2.351562 2.019531-2.394531 3.570312-.046875 1.550782.804687 2.988282 2.183593 3.699219 4.675782 2.40625 9.464844 4.585938 14.308594 6.636719-7.296875 16.113281-6.582031 35.320312 2.066406 50.816406 9.113282 16.332032 26.363282 27.347656 45.011719 28.742188.101563.007812.199219.011718.300781.011718 1.390626 0 2.695313-.71875 3.429688-1.917968l14.976562-24.304688c.730469-1.179687.796876-2.652344.1875-3.894531-.613281-1.242187-1.820312-2.085937-3.199218-2.230469-7.558594-.792968-14.566406-5.402344-18.289063-12.027344-3.300781-5.878906-3.894531-13.132812-1.71875-19.488281 1.199219.425781 2.398438.851563 3.589844 1.28125l18.914063 6.828125c.449218.160156.910156.238282 1.367187.238282 1.128906 0 2.226563-.472657 3.007813-1.34375 1.09375-1.222657 1.339843-2.992188.613281-4.464844zm-6.441407 74.558594c3.976563 7.078125 10.75 12.4375 18.464844 14.855469l-10.644531 17.277344c-14.863282-1.929688-28.867188-11.304688-36.164063-24.382813-7.347656-13.164063-7.914062-30.128906-1.628906-43.839844 8.304687 3.253907 16.710937 6.179688 24.96875 9.046875.898437.3125 1.804687.628906 2.714844.945313-2.921875 8.511719-2.128907 18.226562 2.289062 26.097656zm11.640625-29.738281c-4.652344-1.679688-9.40625-3.328125-14.003906-4.921875-12.660156-4.390625-25.675781-8.910157-37.980469-14.539063l41.257813-18.324218 20.253906 41.226562zm0 0"/></svg>